<svg xmlns="http://www.w3.org/2000/svg" xmlns:xlink="http://www.w3.org/1999/xlink" width="719" height="354"><style type="text/css">path.a{stroke:#000;fill:none;stroke-width:2px;marker-end:url(#arrowhead)}rect.box{fill:#fff;stroke:#000;stroke-width:1px}path.d{stroke-dasharray:2,2}text{font-family:Helvetica,Arial,Liberation Sans,sans-serif}text.pn{font-family:&quot;Courier New&quot;,monospace}text.on,text.ons{font-weight:700}text.ons{font-size:60%}</style><defs><marker id="arrowhead" markerHeight="6" markerUnits="userSpaceOnUse" markerWidth="9" orient="auto" refX="0" refY="5" viewBox="0 0 15 10"><path d="M 0 0 L 15 5 L 0 10 z"/></marker><g id="instance" width="50" height="101"><rect width="49" height="100" x=".5" y=".5" class="box"/><text x="14" y="56" class="pn">q1</text><text x="14" y="79" class="pn">q2</text><text x="10" y="22" class="on">cf</text></g></defs><g font-size="14.5"><rect width="718" height="353" x=".5" y=".5" class="box"/><path d="M 457,25 616,25" class="a d"/><text x="470" y="51" font-size="13.5">implicit prototype link</text><path d="M 456,80 616,80" class="a s"/><text x="469" y="106" font-size="12.5">explicit prototype property</text><rect width="144" height="117" x="80.5" y="25.5" class="box"/><text x="89" y="57" font-weight="bold">CF</text><path d="M 80,37 42,37 42,23" class="a d"/><text x="95" y="75" class="pn">prototype</text><text x="95" y="96" class="pn">P1</text><text x="95" y="117" class="pn">P2</text><path d="M 175,70 260,70" class="a s"/><rect width="79" height="88" x="268.5" y="59.5" class="box"/><path d="M 348,81 380,81 380,23" class="a d"/><text x="283" y="79" class="on">CF</text><text x="304" y="81" class="ons">p</text><text x="287" y="113" class="pn">CFP1</text><use x="79" y="240" xlink:href="#instance"/><text x="103" y="264" class="ons">1</text><path d="M 79,249 45,249 45,194 270,194 270,155" class="a d"/><use x="184" y="240" xlink:href="#instance"/><text x="208" y="264" class="ons">2</text><path d="M 184,246 160,246 160,208 281,208 281,155" class="a d"/><use x="290" y="240" xlink:href="#instance"/><text x="314" y="264" class="ons">3</text><path d="M 305,240 305,155" class="a d"/><use x="396" y="240" xlink:href="#instance"/><text x="420" y="264" class="ons">4</text><path d="M 447,250 469,250 469,207 333,207 333,155" class="a d"/><use x="502" y="240" xlink:href="#instance"/><text x="526" y="264" class="ons">5</text><path d="M 553,251 579,251 579,197 346,197 346,155" class="a d"/></g></svg>